<?xml version="1.0" encoding="UTF-8"?>
<!DOCTYPE svg PUBLIC "-//W3C//DTD SVG 1.1//EN" "http://www.w3.org/Graphics/SVG/1.1/DTD/svg11.dtd">
<svg xmlns="http://www.w3.org/2000/svg" version="1.1" width="246px" height="205px" style="shape-rendering:geometricPrecision; text-rendering:geometricPrecision; image-rendering:optimizeQuality; fill-rule:evenodd; clip-rule:evenodd" xmlns:xlink="http://www.w3.org/1999/xlink">
<g><path style="opacity:1" fill="#fdfdfd" d="M -0.5,-0.5 C 81.5,-0.5 163.5,-0.5 245.5,-0.5C 245.5,67.8333 245.5,136.167 245.5,204.5C 163.5,204.5 81.5,204.5 -0.5,204.5C -0.5,136.167 -0.5,67.8333 -0.5,-0.5 Z"/></g>
<g><path style="opacity:1" fill="#c45459" d="M 131.5,10.5 C 129.016,8.88025 127.516,6.54692 127,3.5C 125.385,4.38619 123.885,5.38619 122.5,6.5C 123.391,4.39113 124.558,2.39113 126,0.5C 128.496,3.50432 130.329,6.83766 131.5,10.5 Z"/></g>
<g><path style="opacity:1" fill="#ee3035" d="M 121.5,37.5 C 116.731,39.0124 114.398,42.3458 114.5,47.5C 113.667,46.5 112.833,45.5 112,44.5C 111.333,45.8333 110.667,45.8333 110,44.5C 109.51,43.2068 109.343,41.8734 109.5,40.5C 108.5,40.5 107.5,40.5 106.5,40.5C 107.167,37.5 107.833,34.5 108.5,31.5C 109.5,31.5 110.5,31.5 111.5,31.5C 112.167,27.5 112.833,27.5 113.5,31.5C 114.833,31.5 116.167,31.5 117.5,31.5C 117.5,30.1667 117.5,28.8333 117.5,27.5C 116.5,27.5 115.5,27.5 114.5,27.5C 114.5,25.8333 114.5,24.1667 114.5,22.5C 115.833,22.5 117.167,22.5 118.5,22.5C 118.5,20.1667 118.5,17.8333 118.5,15.5C 119.873,15.6567 121.207,15.49 122.5,15C 121.289,13.8869 121.289,12.7202 122.5,11.5C 123.515,10.3185 124.681,9.31851 126,8.5C 127.752,9.95801 129.585,11.2913 131.5,12.5C 132.608,15.8364 134.274,18.8364 136.5,21.5C 135.675,22.3857 134.675,22.719 133.5,22.5C 132.833,20.1667 132.167,17.8333 131.5,15.5C 130.167,15.5 128.833,15.5 127.5,15.5C 127.579,17.6663 128.246,19.6663 129.5,21.5C 127.652,25.3433 125.818,25.3433 124,21.5C 123.118,26.8392 122.285,32.1726 121.5,37.5 Z"/></g>
<g><path style="opacity:1" fill="#e13b3f" d="M 108.5,31.5 C 107.833,34.5 107.167,37.5 106.5,40.5C 107.5,40.5 108.5,40.5 109.5,40.5C 109.343,41.8734 109.51,43.2068 110,44.5C 110.667,45.8333 111.333,45.8333 112,44.5C 112.833,45.5 113.667,46.5 114.5,47.5C 114.398,42.3458 116.731,39.0124 121.5,37.5C 119.789,43.9821 117.122,49.9821 113.5,55.5C 113.662,53.4727 113.495,51.4727 113,49.5C 110.673,52.3682 109.173,52.0348 108.5,48.5C 105.572,47.5159 102.572,47.1826 99.5,47.5C 102.507,42.1215 105.507,36.7882 108.5,31.5 Z"/></g>
<g><path style="opacity:1" fill="#e83439" d="M 131.5,10.5 C 138.936,21.7024 145.603,33.369 151.5,45.5C 151.372,49.5847 153.039,52.5847 156.5,54.5C 160.337,60.1698 163.67,66.1698 166.5,72.5C 166.5,73.8333 166.5,75.1667 166.5,76.5C 155.986,76.1724 145.653,76.5058 135.5,77.5C 132.833,77.5 130.167,77.5 127.5,77.5C 128.589,75.8829 130.256,75.0496 132.5,75C 130.744,74.7978 129.078,74.2978 127.5,73.5C 129.647,72.1647 131.647,72.3314 133.5,74C 144.183,74.3211 154.85,74.8211 165.5,75.5C 165.299,71.65 163.466,70.65 160,72.5C 154.803,70.5798 149.303,69.9132 143.5,70.5C 143.5,69.1667 143.5,67.8333 143.5,66.5C 143.715,64.8212 143.048,63.8212 141.5,63.5C 140.746,57.3394 138.413,52.006 134.5,47.5C 132.382,42.5174 130.048,37.5174 127.5,32.5C 126.675,31.6143 125.675,31.281 124.5,31.5C 124.346,33.9699 123.346,35.9699 121.5,37.5C 122.285,32.1726 123.118,26.8392 124,21.5C 125.818,25.3433 127.652,25.3433 129.5,21.5C 128.246,19.6663 127.579,17.6663 127.5,15.5C 128.833,15.5 130.167,15.5 131.5,15.5C 132.167,17.8333 132.833,20.1667 133.5,22.5C 134.675,22.719 135.675,22.3857 136.5,21.5C 134.274,18.8364 132.608,15.8364 131.5,12.5C 129.585,11.2913 127.752,9.95801 126,8.5C 124.681,9.31851 123.515,10.3185 122.5,11.5C 121.289,12.7202 121.289,13.8869 122.5,15C 121.207,15.49 119.873,15.6567 118.5,15.5C 118.5,17.8333 118.5,20.1667 118.5,22.5C 117.167,22.5 115.833,22.5 114.5,22.5C 114.5,24.1667 114.5,25.8333 114.5,27.5C 115.5,27.5 116.5,27.5 117.5,27.5C 117.5,28.8333 117.5,30.1667 117.5,31.5C 116.167,31.5 114.833,31.5 113.5,31.5C 112.833,27.5 112.167,27.5 111.5,31.5C 110.5,31.5 109.5,31.5 108.5,31.5C 112.38,22.741 117.047,14.4077 122.5,6.5C 123.885,5.38619 125.385,4.38619 127,3.5C 127.516,6.54692 129.016,8.88025 131.5,10.5 Z"/></g>
<g><path style="opacity:1" fill="#c9464a" d="M 134.5,47.5 C 138.413,52.006 140.746,57.3394 141.5,63.5C 139.185,58.2436 136.852,52.9103 134.5,47.5 Z"/></g>
<g><path style="opacity:1" fill="#cf4b50" d="M 151.5,45.5 C 153.417,48.331 155.083,51.331 156.5,54.5C 153.039,52.5847 151.372,49.5847 151.5,45.5 Z"/></g>
<g><path style="opacity:1" fill="#faf5f2" d="M 134.5,47.5 C 136.852,52.9103 139.185,58.2436 141.5,63.5C 132.596,65.3063 123.596,67.3063 114.5,69.5C 112.105,70.3635 109.771,70.3635 107.5,69.5C 109.53,65.15 111.53,60.8166 113.5,56.5C 113.5,56.1667 113.5,55.8333 113.5,55.5C 117.122,49.9821 119.789,43.9821 121.5,37.5C 123.346,35.9699 124.346,33.9699 124.5,31.5C 125.675,31.281 126.675,31.6143 127.5,32.5C 130.048,37.5174 132.382,42.5174 134.5,47.5 Z"/></g>
<g><path style="opacity:1" fill="#d45458" d="M 141.5,63.5 C 143.048,63.8212 143.715,64.8212 143.5,66.5C 142.5,66.5 141.5,66.5 140.5,66.5C 131.833,67.5 123.167,68.5 114.5,69.5C 123.596,67.3063 132.596,65.3063 141.5,63.5 Z"/></g>
<g><path style="opacity:1" fill="#ef2f35" d="M 99.5,47.5 C 102.572,47.1826 105.572,47.5159 108.5,48.5C 109.173,52.0348 110.673,52.3682 113,49.5C 113.495,51.4727 113.662,53.4727 113.5,55.5C 113.5,55.8333 113.5,56.1667 113.5,56.5C 112.153,55.8288 110.986,55.8288 110,56.5C 108.417,61.6185 106.25,66.4519 103.5,71C 105.522,73.0184 108.022,73.8517 111,73.5C 118.853,70.4974 127.02,68.9974 135.5,69C 137.315,68.2432 138.981,67.4098 140.5,66.5C 141.5,66.5 142.5,66.5 143.5,66.5C 143.5,67.8333 143.5,69.1667 143.5,70.5C 149.303,69.9132 154.803,70.5798 160,72.5C 163.466,70.65 165.299,71.65 165.5,75.5C 154.85,74.8211 144.183,74.3211 133.5,74C 131.647,72.3314 129.647,72.1647 127.5,73.5C 129.078,74.2978 130.744,74.7978 132.5,75C 130.256,75.0496 128.589,75.8829 127.5,77.5C 121.884,77.2101 116.384,77.8768 111,79.5C 109.07,79.0915 107.236,78.4248 105.5,77.5C 102.99,80.5209 99.6562,83.1876 95.5,85.5C 88.3857,86.369 81.3857,87.7024 74.5,89.5C 73.3044,89.1543 73.3044,88.6543 74.5,88C 73.1667,87.6667 71.8333,87.3333 70.5,87C 74.0525,84.0562 78.0525,81.8896 82.5,80.5C 84.8815,76.2151 87.7148,72.2151 91,68.5C 91.1475,62.3615 93.8142,57.6949 99,54.5C 99.4966,52.1902 99.6633,49.8568 99.5,47.5 Z"/></g>
<g><path style="opacity:1" fill="#df383f" d="M 113.5,56.5 C 111.53,60.8166 109.53,65.15 107.5,69.5C 109.771,70.3635 112.105,70.3635 114.5,69.5C 123.167,68.5 131.833,67.5 140.5,66.5C 138.981,67.4098 137.315,68.2432 135.5,69C 127.02,68.9974 118.853,70.4974 111,73.5C 108.022,73.8517 105.522,73.0184 103.5,71C 106.25,66.4519 108.417,61.6185 110,56.5C 110.986,55.8288 112.153,55.8288 113.5,56.5 Z"/></g>
<g><path style="opacity:1" fill="#ce7073" d="M 166.5,72.5 C 168.539,73.911 169.539,75.911 169.5,78.5C 158.193,77.6159 146.86,77.2826 135.5,77.5C 145.653,76.5058 155.986,76.1724 166.5,76.5C 166.5,75.1667 166.5,73.8333 166.5,72.5 Z"/></g>
<g><path style="opacity:1" fill="#d93d41" d="M 127.5,77.5 C 116.778,79.5161 106.111,82.1828 95.5,85.5C 99.6562,83.1876 102.99,80.5209 105.5,77.5C 107.236,78.4248 109.07,79.0915 111,79.5C 116.384,77.8768 121.884,77.2101 127.5,77.5 Z"/></g>
<g><path style="opacity:1" fill="#db4349" d="M 99.5,47.5 C 99.6633,49.8568 99.4966,52.1902 99,54.5C 93.8142,57.6949 91.1475,62.3615 91,68.5C 87.7148,72.2151 84.8815,76.2151 82.5,80.5C 78.0525,81.8896 74.0525,84.0562 70.5,87C 71.8333,87.3333 73.1667,87.6667 74.5,88C 73.3044,88.6543 73.3044,89.1543 74.5,89.5C 81.3857,87.7024 88.3857,86.369 95.5,85.5C 87.1007,88.5281 78.7674,91.8615 70.5,95.5C 71.7471,93.822 73.4138,92.4887 75.5,91.5C 71.7112,89.5786 67.7112,89.0786 63.5,90C 60.7777,92.3578 57.7777,94.1911 54.5,95.5C 62.6307,88.5932 71.6307,82.9265 81.5,78.5C 87.2606,67.9722 93.2606,57.6389 99.5,47.5 Z"/></g>
<g><path style="opacity:1" fill="#070807" d="M 164.5,83.5 C 186.923,83.6949 209.257,85.1949 231.5,88C 213.824,88.167 196.157,88.667 178.5,89.5C 183.748,98.998 189.248,108.331 195,117.5C 196.009,119.025 196.509,120.692 196.5,122.5C 188.167,122.5 179.833,122.5 171.5,122.5C 167.381,112.261 162.714,102.261 157.5,92.5C 154.216,91.343 150.882,91.1764 147.5,92C 120.227,99.0557 97.7265,113.556 80,135.5C 66.2748,153.606 55.1082,173.273 46.5,194.5C 36.8333,195.833 27.1667,195.833 17.5,194.5C 34.8018,138.7 71.8018,103.533 128.5,89C 140.589,86.7439 152.589,84.9106 164.5,83.5 Z"/></g>
<g><path style="opacity:1" fill="#e83539" d="M 70.5,95.5 C 60.6113,101.062 51.2779,107.396 42.5,114.5C 40.8008,114.66 39.1341,114.494 37.5,114C 36.7476,113.329 36.4142,112.496 36.5,111.5C 40.6865,108.992 44.3531,105.659 47.5,101.5C 49.2393,98.7573 51.5726,96.7573 54.5,95.5C 57.7777,94.1911 60.7777,92.3578 63.5,90C 67.7112,89.0786 71.7112,89.5786 75.5,91.5C 73.4138,92.4887 71.7471,93.822 70.5,95.5 Z"/></g>
<g><path style="opacity:1" fill="#d05459" d="M 47.5,101.5 C 44.3531,105.659 40.6865,108.992 36.5,111.5C 39.5628,107.434 43.2294,104.101 47.5,101.5 Z"/></g>
<g><path style="opacity:1" fill="#da434d" d="M 36.5,111.5 C 36.4142,112.496 36.7476,113.329 37.5,114C 39.1341,114.494 40.8008,114.66 42.5,114.5C 37.4881,119.232 32.4881,123.899 27.5,128.5C 23.4461,133.543 19.4461,138.543 15.5,143.5C 15.5,142.167 15.5,140.833 15.5,139.5C 20.9997,129.006 27.9997,119.673 36.5,111.5 Z"/></g>
<g><path style="opacity:1" fill="#b85d6c" d="M 15.5,139.5 C 15.5,140.833 15.5,142.167 15.5,143.5C 12.2475,148.724 9.08082,154.057 6,159.5C 5.34569,160.696 4.84569,160.696 4.5,159.5C 7.68704,152.45 11.3537,145.783 15.5,139.5 Z"/></g>
</svg>
